<?xml version="1.0" encoding="utf-8"?>
<!-- Generator: Adobe Illustrator 21.0.0, SVG Export Plug-In . SVG Version: 6.00 Build 0)  -->
<svg version="1.1" id="Layer_1" xmlns="http://www.w3.org/2000/svg" xmlns:xlink="http://www.w3.org/1999/xlink" x="0px" y="0px"
	 viewBox="0 0 51.6 51.6" style="enable-background:new 0 0 51.6 51.6;" xml:space="preserve">
<style type="text/css">
	.st0{fill:#E5E5E5;}
	.st1{fill:#FFFFFF;}
</style>
<circle class="st0" cx="25.8" cy="25.8" r="25.3"/>
<path class="st1" d="M44.2,20.6c0,0.3-0.1,0.7-0.6,1.1l-8.1,7.8l1.8,11c0,0.1,0,0.3,0,0.4c0,0.3-0.1,0.6-0.3,0.8
	c-0.1,0.3-0.4,0.3-0.7,0.3c-0.3,0-0.6-0.1-0.8-0.3l-9.9-5.2l-9.9,5.2c-0.3,0.1-0.6,0.3-0.8,0.3c-0.3,0-0.6-0.1-0.7-0.3
	c-0.1-0.3-0.3-0.4-0.3-0.8c0-0.1,0-0.3,0-0.4l1.8-11l-8.1-7.8c-0.4-0.4-0.6-0.7-0.6-1.1c0-0.6,0.4-0.8,1.3-1l11-1.6l4.9-10
	c0.3-0.6,0.7-0.8,1.1-0.8c0.4,0,0.8,0.3,1.1,0.8l4.9,10l11,1.6C43.8,19.7,44.2,20,44.2,20.6L44.2,20.6z"/>
</svg>
